# xmcd CD database file
#
# Track frame offsets:
#	150
#	9159
#	22070
#	36097
#	49907
#	85398
#	98985
#	112307
#	124875
#	142410
#	152098
#	177062
#	188142
#	205796
#
# Disc length: 3088 seconds
#
# Revision: 0
# Processed by: cddbd v1.5.2PL0 Copyright (c) Steve Scherf et al.
# Submitted via: CDex 1.70beta2
#
DISCID=c50c0e0e
DTITLE=Slawek Wierzcholski and Dzem - Cisnienie
DYEAR=1992
DGENRE=Blues
TTITLE0=Wodnik - rozrywkowy bar
TTITLE1=Cisnienie
TTITLE2=Juz nigdy wiecej
TTITLE3=Niezaplacony rachunek
TTITLE4=Blues telefoniczny
TTITLE5=Zawsze wygra blues
TTITLE6=Wspaniale zycie
TTITLE7=Przez cala noc
TTITLE8=Ani slowa o klopotach
TTITLE9=Zeberka
TTITLE10=Moje zycie to blues
TTITLE11=Przegranych nikt nie lubi
TTITLE12=Lata dziewiecdziesiate
TTITLE13=Wideoklip-Refleksje
EXTD=YEAR: 1992
EXTT0=
EXTT1=
EXTT2=
EXTT3=
EXTT4=
EXTT5=
EXTT6=
EXTT7=
EXTT8=
EXTT9=
EXTT10=
EXTT11=
EXTT12=
EXTT13=
PLAYORDER=
